<?xml version="1.0" standalone="no"?>
<!DOCTYPE svg PUBLIC "-//W3C//DTD SVG 20010904//EN"
 "http://www.w3.org/TR/2001/REC-SVG-20010904/DTD/svg10.dtd">
<svg version="1.0" xmlns="http://www.w3.org/2000/svg"
 width="260.000000pt" height="260.000000pt" viewBox="0 0 260.000000 260.000000"
 preserveAspectRatio="xMidYMid meet">
<metadata>
Created by potrace 1.11, written by Peter Selinger 2001-2013
</metadata>
<g transform="translate(0.000000,260.000000) scale(0.100000,-0.100000)"
fill="#000000" stroke="none">
<path d="M0 1300 l0 -1300 1300 0 1300 0 0 1300 0 1300 -1300 0 -1300 0 0
-1300z m1011 836 c154 -47 284 -176 318 -319 28 -116 -53 -130 -233 -40 -98
50 -197 186 -211 294 -11 76 27 95 126 65z m664 -82 c143 -68 255 -233 255
-377 0 -65 -13 -87 -51 -87 -70 0 -224 110 -274 197 -54 91 -80 225 -55 274
15 27 58 24 125 -7z m-925 -257 c53 -25 142 -106 177 -161 67 -105 93 -246 53
-286 -25 -25 -52 -20 -140 28 -137 75 -217 196 -227 342 -8 116 20 132 137 77z
m764 -159 c17 -43 5 -176 -24 -248 -48 -123 -175 -247 -287 -280 -56 -17 -68
-10 -83 46 -26 94 16 241 100 345 84 104 178 168 248 169 28 0 35 -5 46 -32z
m252 -174 c156 -45 297 -210 311 -362 6 -66 -7 -86 -57 -84 -35 1 -139 49
-196 91 -108 80 -207 325 -146 360 23 14 25 14 88 -5z m-994 -255 c128 -27
257 -118 318 -224 36 -62 40 -119 11 -135 -50 -26 -206 3 -297 56 -52 30 -128
114 -160 176 -57 111 -12 156 128 127z m927 -173 c31 -28 27 -69 -11 -113 -92
-106 -158 -153 -254 -177 -110 -28 -234 -14 -250 28 -8 22 30 93 74 139 93 97
215 149 343 145 59 -2 82 -7 98 -22z"/>
<path d="M927 2095 c26 -48 355 -346 368 -333 6 6 -177 193 -245 249 -98 82
-135 106 -123 84z"/>
<path d="M1591 2025 c73 -130 299 -425 299 -391 0 25 -197 297 -275 381 l-47
50 23 -40z"/>
<path d="M661 1763 c72 -119 286 -403 304 -403 7 0 -51 96 -105 173 -53 75
-209 267 -217 267 -2 0 6 -17 18 -37z"/>
<path d="M1398 1548 c-106 -153 -253 -425 -219 -404 43 27 314 496 287 496 -3
0 -33 -42 -68 -92z"/>
<path d="M1717 1412 c32 -53 126 -161 229 -262 96 -94 98 -82 5 30 -68 83
-257 270 -234 232z"/>
<path d="M664 1161 c21 -34 256 -195 375 -258 l66 -34 -45 41 c-80 72 -418
287 -396 251z"/>
<path d="M1611 980 c-24 -11 -48 -20 -53 -20 -15 0 -250 -115 -303 -149 -27
-17 -46 -31 -43 -31 37 0 403 165 453 204 29 22 0 20 -54 -4z"/>
</g>
</svg>
